<?xml version="1.0" encoding="UTF-8" standalone="no"?>
<svg
   xmlns:dc="http://purl.org/dc/elements/1.1/"
   xmlns:cc="http://creativecommons.org/ns#"
   xmlns:rdf="http://www.w3.org/1999/02/22-rdf-syntax-ns#"
   xmlns:svg="http://www.w3.org/2000/svg"
   xmlns="http://www.w3.org/2000/svg"
   viewBox="0 0 24 24"
   height="24"
   width="24"
   id="svg2"
   version="1.1">
  <metadata
     id="metadata8">
    <rdf:RDF>
      <cc:Work
         rdf:about="">
        <dc:format>image/svg+xml</dc:format>
        <dc:type
           rdf:resource="http://purl.org/dc/dcmitype/StillImage" />
        <dc:title></dc:title>
      </cc:Work>
    </rdf:RDF>
  </metadata>
  <defs
     id="defs6" />
  <path
     id="path3715"
     d="m 21.708658,16.786724 c -0.300061,-0.07861 -0.490684,-0.188187 -0.752162,-0.432378 l -0.219915,-0.205376 -0.06964,0.288879 -0.06964,0.288878 H 19.494476 18.391655 V 11.972555 7.218383 h 1.169557 1.169557 v 1.5340938 c 0,0.8437516 0.0085,1.5340942 0.01891,1.5340942 0.0104,0 0.105215,-0.08073 0.210697,-0.179406 0.351578,-0.3288837 0.730206,-0.4570741 1.352787,-0.458007 0.553155,-8.293e-4 0.921714,0.1135384 1.204487,0.373762 0.170755,0.157139 0.258922,0.294314 0.348527,0.542257 l 0.06948,0.192254 -3.11e-4,2.323924 c -3.4e-4,2.550692 -0.0034,2.599644 -0.186342,2.973545 -0.159888,0.3268 -0.570033,0.642913 -0.968977,0.746825 -0.255109,0.06645 -0.789002,0.05897 -1.07137,-0.015 z m -0.288015,-1.38547 c 0.04482,-0.03346 0.09512,-0.10093 0.111774,-0.149922 0.04519,-0.132941 0.06132,-3.587254 0.01796,-3.844352 -0.0469,-0.278071 -0.178,-0.391335 -0.452948,-0.391335 -0.151298,0 -0.263699,0.09065 -0.312762,0.252248 -0.05772,0.190119 -0.05562,3.707042 0.0024,3.932555 0.05786,0.225084 0.147931,0.290579 0.377052,0.274182 0.111976,-0.008 0.204456,-0.03446 0.256578,-0.07338 z M 0.16479777,11.972555 V 7.218383 H 1.3799216 2.5950454 v 4.754172 4.754172 H 1.3799216 0.16479777 Z m 3.28083433,0 V 7.218383 h 1.5930571 c 0.8761815,0 1.5993773,0.010253 1.6071018,0.022784 0.00772,0.012531 0.1548703,1.0053126 0.3269911,2.2061812 0.1788513,1.2478288 0.3222903,2.1590028 0.3347526,2.1264668 0.011994,-0.03131 0.1393784,-0.993336 0.2830777,-2.1378306 C 7.7343114,8.2914896 7.8586578,7.324327 7.8669376,7.2867341 l 0.015054,-0.068351 h 1.5942713 1.5942711 v 4.7541719 4.754172 H 10.007301 8.9440674 l -0.00314,-3.166917 c -0.0019,-1.91258 -0.013831,-3.124804 -0.030131,-3.060593 -0.014845,0.05848 -0.2048799,1.432328 -0.4222993,3.052999 -0.217419,1.620671 -0.4032786,2.997938 -0.4130211,3.060593 L 8.057762,16.726727 H 7.2923566 6.526951 L 6.0900107,13.666134 c -0.2403172,-1.683326 -0.4483239,-3.07358 -0.4622371,-3.089453 -0.013913,-0.01587 -0.025297,1.361395 -0.025297,3.060594 v 3.089452 H 4.5240545 3.4456321 Z m 8.5058669,-0.0011 V 7.212386 L 13.6147,7.226897 c 1.769199,0.015436 2.098335,0.038329 2.548546,0.1772601 0.656923,0.2027209 1.090061,0.6216361 1.237049,1.1964304 0.09694,0.3790715 0.115237,0.7999922 0.131408,3.0226205 0.0282,3.8758 -0.02483,4.280273 -0.61988,4.72824 -0.19524,0.146981 -0.40379,0.235484 -0.72258,0.306643 -0.177552,0.03963 -0.544787,0.04953 -2.225195,0.06 l -2.012549,0.01253 z m 2.756183,3.104263 c 0.197248,-0.04134 0.290208,-0.102213 0.358888,-0.235026 0.09527,-0.184242 0.107737,-0.576823 0.09875,-3.111209 -0.0088,-2.4799568 -0.01,-2.5233465 -0.07165,-2.640934 -0.0853,-0.1625991 -0.232062,-0.2343454 -0.491524,-0.2402865 l -0.205211,-0.0047 -0.0078,3.0985655 c -0.0043,1.704211 -0.0013,3.115653 0.0066,3.136538 0.0181,0.0475 0.07371,0.04697 0.311934,-0.0029 z"
     style="fill:#000000;stroke-width:0.0303781" />
</svg>
