<?xml version="1.0" encoding="UTF-8" standalone="no"?>
<svg
   xmlns:dc="http://purl.org/dc/elements/1.1/"
   xmlns:cc="http://creativecommons.org/ns#"
   xmlns:rdf="http://www.w3.org/1999/02/22-rdf-syntax-ns#"
   xmlns:svg="http://www.w3.org/2000/svg"
   xmlns="http://www.w3.org/2000/svg"
   xmlns:sodipodi="http://sodipodi.sourceforge.net/DTD/sodipodi-0.dtd"
   xmlns:inkscape="http://www.inkscape.org/namespaces/inkscape"
   width="24"
   height="24"
   viewBox="0 0 24 24"
   version="1.1"
   id="svg4"
   sodipodi:docname="linkedin.svg"
   inkscape:version="1.0.2 (e86c870879, 2021-01-15)">
  <metadata
     id="metadata10">
    <rdf:RDF>
      <cc:Work
         rdf:about="">
        <dc:format>image/svg+xml</dc:format>
        <dc:type
           rdf:resource="http://purl.org/dc/dcmitype/StillImage" />
        <dc:title></dc:title>
      </cc:Work>
    </rdf:RDF>
  </metadata>
  <defs
     id="defs8" />
  <sodipodi:namedview
     pagecolor="#ffffff"
     bordercolor="#666666"
     borderopacity="1"
     objecttolerance="10"
     gridtolerance="10"
     guidetolerance="10"
     inkscape:pageopacity="0"
     inkscape:pageshadow="2"
     inkscape:window-width="1916"
     inkscape:window-height="1036"
     id="namedview6"
     showgrid="false"
     inkscape:zoom="16.001048"
     inkscape:cx="10.726331"
     inkscape:cy="12.481485"
     inkscape:window-x="0"
     inkscape:window-y="42"
     inkscape:window-maximized="0"
     inkscape:current-layer="svg4" />
  <path
     d="m 20.497803,20.460808 h -3.561748 v -5.571493 c 0,-1.328596 -0.02377,-3.038878 -1.852427,-3.038878 -1.855115,0 -2.138962,1.447484 -2.138962,2.942116 v 5.667825 H 9.3830254 V 9.0031529 h 3.4191786 v 1.5657281 h 0.04795 c 0.696178,-1.1889828 1.995427,-1.9017701 3.373592,-1.8506497 3.609915,0 4.275559,2.3717347 4.275559,5.4573307 z M 5.3642178,7.4369961 h -4.3e-4 c -1.1338845,0 -2.0669255,-0.9318746 -2.0669255,-2.0644739 0,-1.1325982 0.933041,-2.0645815 2.0669255,-2.0645815 1.133777,0 2.0667106,0.9317682 2.0669256,2.0641523 v 4.292e-4 c 0,1.1323842 -0.9328262,2.0643674 -2.0664956,2.0644739 M 7.1450379,20.460808 H 3.5796346 V 9.0031529 H 7.1450379 Z M 22.273354,0.00411696 H 1.7897829 C 0.82824964,-0.00673163 0.02777842,0.77425335 0.0160589,1.734696 v 20.545293 c 0.01128963,0.96098 0.81165312,1.742823 1.773724,1.732513 H 22.273354 c 0.964436,0.01213 1.767596,-0.769601 1.780498,-1.732513 V 1.7333007 c -0.0129,-0.96248324 -0.817136,-1.74336067 -1.780498,-1.73068759"
     style="clip-rule:evenodd;fill:#000000;fill-opacity:1;fill-rule:nonzero;stroke-width:0.107457;stroke-linejoin:round;stroke-miterlimit:2"
     id="path887"
     sodipodi:nodetypes="ccsssccccccccccsssssccccccccccccccc" />
</svg>
